<svg width="130" height="130" viewBox="0 0 130 130" fill="none" xmlns="http://www.w3.org/2000/svg">
<path d="M109.497 71.8287C109.41 72.421 109.337 72.7893 109.319 72.8735C108.862 75.0069 108.13 77.0718 107.14 79.016V79.0172C106.859 79.5746 106.557 80.1239 106.236 80.6651C105.3 82.2379 104.228 83.7261 103.033 85.1128C102.307 85.9614 101.534 86.7839 100.712 87.5804C97.1567 91.0398 92.7764 93.9985 87.97 96.3915C87.0672 96.8417 86.15 97.271 85.2184 97.6795C82.2699 98.9718 79.2348 100.057 76.1352 100.926C75.4932 101.106 74.8505 101.277 74.2069 101.439C73.0886 101.72 71.9656 101.973 70.8449 102.196C69.3307 102.498 67.822 102.747 66.319 102.942C64.3967 103.192 62.4912 103.351 60.6231 103.42C58.3926 103.497 56.1595 103.46 53.9329 103.307C52.7906 103.232 51.6314 103.126 50.4626 102.99C50.4613 102.991 50.4599 102.991 50.4584 102.991C50.4569 102.991 50.4555 102.991 50.4542 102.99C49.4178 102.871 48.3746 102.728 47.3246 102.562C47.0381 102.516 46.7516 102.468 46.4639 102.42C44.5199 102.086 42.5699 101.67 40.6404 101.168C40.6055 101.159 40.5706 101.151 40.5357 101.14C40.5161 101.136 40.4969 101.132 40.4779 101.126C40.4237 101.112 40.3696 101.098 40.3154 101.082C38.5965 100.627 36.8981 100.104 35.237 99.5091C34.0682 99.0914 32.9174 98.6376 31.7944 98.1477C31.2599 97.9154 30.7323 97.6747 30.2115 97.4255C29.7348 97.198 29.2638 96.9633 28.7984 96.7213C26.0527 95.2961 23.5273 93.629 21.345 91.7079C20.3565 90.8407 19.4306 89.9047 18.5741 88.9069C17.2732 87.3967 16.1739 85.724 15.3036 83.9308C14.8757 83.0437 14.5112 82.1274 14.2131 81.1887C14.0891 80.7999 13.9755 80.4043 13.8724 80.0019C13.4101 78.1656 13.155 76.2833 13.1117 74.3902C13.0997 73.9364 13.0997 73.4806 13.1117 73.0228C13.1499 71.4294 13.3332 69.8428 13.6594 68.2826C14.5248 64.172 16.4159 60.3695 19.4456 57.8333C24.6624 53.4638 32.7164 53.3049 37.7058 53.7214C39.6497 53.8839 41.1291 54.1331 41.7935 54.2559C42.7818 54.4376 43.7496 54.6627 44.7282 54.8986C48.3549 55.7713 52.1346 56.78 57.6379 56.1613C58.2109 56.0963 60.2078 55.8556 63.8634 54.8385C66.5947 54.0976 69.2634 53.1433 71.8452 51.9845C71.9608 51.9315 72.0751 51.8798 72.1883 51.828C72.4808 51.692 72.7624 51.5584 73.0381 51.4247C73.1079 51.391 73.1789 51.3561 73.2475 51.3224C73.8024 51.0504 74.326 50.782 74.8268 50.5196H74.8292C74.8472 50.5099 74.8641 50.5003 74.8822 50.4907C74.9508 50.4546 75.0182 50.4197 75.0856 50.3835C75.0924 50.3807 75.0988 50.377 75.1048 50.3727C75.8343 49.9887 76.5192 49.6168 77.1884 49.2641C77.3269 49.1907 77.4653 49.1185 77.6025 49.0474C77.6988 48.9981 77.7951 48.9475 77.8914 48.8994C77.9576 48.8657 78.0238 48.832 78.0888 48.7983H78.09C78.4921 48.596 78.8917 48.401 79.2997 48.2157C79.9341 47.9256 80.5853 47.6584 81.2786 47.4176C81.8251 47.2262 82.3969 47.0529 83.0084 46.8976C89.0702 45.3557 98.1353 45.848 103.902 51.1852C108.599 55.5342 109.733 61.8248 109.822 66.5168C109.855 68.2933 109.747 70.0696 109.497 71.8287Z" fill="white"/>
<path d="M70.8444 68.5113V102.196C67.4754 102.877 64.0571 103.286 60.6226 103.42C51.8331 103.741 40.9288 102.128 31.7939 98.1489C30.2766 97.491 28.7952 96.7534 27.3558 95.9389C27.3546 95.9389 27.3546 95.9377 27.3534 95.9377C26.4831 95.443 25.6402 94.9222 24.8244 94.3753C24.0794 93.8758 23.3607 93.3538 22.6686 92.8093C22.2148 92.4506 21.7735 92.0827 21.3445 91.7055C18.0416 88.7986 15.5222 85.309 14.2126 81.1887C14.0898 80.7999 13.9755 80.4051 13.8731 80.0031C13.41 78.1669 13.1544 76.2846 13.1112 74.3914V73.0228C13.1494 71.4298 13.3327 69.8436 13.6589 68.2838H22.482V80.4497H23.9927V56.1926H33.3635V92.6913H39.1064V62.541L61.4748 73.7246V68.5113C61.4748 67.9356 61.5882 67.3656 61.8085 66.8337C62.0288 66.3018 62.3517 65.8185 62.7588 65.4114C63.1659 65.0043 63.6492 64.6814 64.181 64.4611C64.7129 64.2408 65.283 64.1274 65.8587 64.1274H66.4606C67.0363 64.1274 67.6063 64.2408 68.1382 64.4611C68.6701 64.6814 69.1534 65.0043 69.5605 65.4114C69.9676 65.8185 70.2905 66.3018 70.5108 66.8337C70.7311 67.3656 70.8445 67.9356 70.8444 68.5113Z" fill="#F3F0D8"/>
<path d="M109.496 68.2457V71.8293C109.411 72.4206 109.337 72.7888 109.319 72.8733C106.293 87.1449 90.589 97.3267 74.2072 101.439V59.8198H83.5771V91.2553H85.0888V72.3973L94.4586 68.2831V68.2457C94.4547 67.2558 94.6462 66.2749 95.0223 65.3592C95.3984 64.4434 95.9516 63.611 96.6502 62.9096C97.3488 62.2082 98.179 61.6517 99.0932 61.272C100.007 60.8922 100.988 60.6967 101.978 60.6967C102.967 60.6967 103.948 60.8922 104.862 61.272C105.776 61.6517 106.606 62.2082 107.305 62.9096C108.003 63.611 108.557 64.4434 108.933 65.3592C109.309 66.2749 109.5 67.2558 109.496 68.2457H109.496Z" fill="#F3F0D8"/>
<path d="M106.237 80.6648C105.3 82.2376 104.228 83.7258 103.033 85.1125V82.4543C103.033 81.4657 104.387 80.6648 106.057 80.6648H106.237Z" fill="#FF0909"/>
<path d="M47.3247 102.561C47.0385 102.516 46.7517 102.469 46.4644 102.419C42.6453 101.774 38.889 100.801 35.2374 99.5101L40.7123 84.8213L47.3247 102.561Z" fill="white"/>
<path d="M30.2118 97.426C25.6288 95.2379 21.5737 92.4173 18.5745 88.9066L22.8055 77.5557L30.2118 97.426Z" fill="white"/>
<path d="M107.14 79.0169C106.859 79.5748 106.558 80.124 106.237 80.6647C105.3 82.2374 104.228 83.7256 103.033 85.1122C102.307 85.9609 101.533 86.7835 100.713 87.5798C94.3834 93.7364 85.4461 98.3072 76.1349 100.926C75.4939 101.106 74.8514 101.277 74.2074 101.439C73.0886 101.72 71.9676 101.972 70.8443 102.196C69.3308 102.498 67.8222 102.746 66.3184 102.942C66.5366 102.763 66.7669 102.599 67.0078 102.452C68.3949 101.608 70.0155 101.16 71.2968 100.163C70.6326 99.6566 71.1576 98.5986 71.7566 98.0167C73.1852 96.6326 74.8922 95.5688 76.764 94.8961C76.4631 92.5462 79.0429 90.3317 81.3199 90.984C81.3351 90.4085 81.5544 89.8571 81.9387 89.4284C82.323 88.9997 82.8473 88.7217 83.4178 88.644C83.9882 88.5664 84.5677 88.6941 85.0527 89.0045C85.5376 89.3148 85.8964 89.7875 86.0648 90.338C86.1617 89.5135 86.3931 88.7105 86.7497 87.9609C87.0611 87.3057 88.0356 87.3561 88.2652 88.0452C88.2663 88.0498 88.2678 88.0543 88.2696 88.0587C89.0248 86.5393 91.3993 86.1859 92.5639 87.4207C92.1576 85.9078 93.98 84.3292 95.4194 84.947C94.7287 83.9332 94.5424 82.517 95.1937 81.4775C95.845 80.438 97.4274 80.0247 98.3755 80.8034C97.7022 79.6556 98.5502 77.9429 99.8715 77.7822C100.546 77.7003 101.215 77.9602 101.894 77.9775C102.246 77.9854 102.592 77.8927 102.892 77.7105C103.644 77.2353 104.627 77.3062 105.227 77.9627C105.634 78.4205 105.95 78.9508 106.16 79.526C106.499 79.3665 106.822 79.1898 107.14 79.0169Z" fill="white"/>
<path d="M45.7474 49.4307C41.697 48.5585 37.4079 46.8814 35.4139 43.2497C34.6978 41.9455 34.3367 40.3518 34.8631 38.9602C35.57 37.0915 37.653 36.1044 39.6298 35.8169C42.1041 35.4636 44.6268 35.9058 46.8335 37.0795C49.8351 38.6864 52.2423 41.6359 55.6136 42.111C58.1928 42.4742 60.6965 41.2817 63.1807 40.499C65.6649 39.7164 68.7034 39.4528 70.5709 41.2683C71.0173 41.7024 71.0918 42.28 71.135 42.515C71.4993 44.5011 69.5321 46.3236 68.8205 46.9828C67.8496 47.8823 65.5946 49.5819 58.5368 50.1512C54.7394 50.4571 50.8667 50.5332 45.7474 49.4307Z" fill="white"/>
<path d="M36.0099 49.5083H12.3112C11.9081 48.8092 11.7426 47.9981 11.8396 47.1969C11.9367 46.3956 12.291 45.6475 12.8494 45.0648C13.4078 44.4821 14.1402 44.0963 14.9366 43.9652C15.733 43.8342 16.5504 43.965 17.266 44.3381C17.3322 43.5061 17.579 42.6985 17.9894 41.9718C18.3998 41.245 18.9638 40.6166 19.6422 40.1303C20.3205 39.644 21.0967 39.3115 21.9168 39.1562C22.7368 39.0008 23.5809 39.0263 24.39 39.2307C25.1992 39.4352 25.9541 39.8138 26.6018 40.3401C27.2496 40.8663 27.7748 41.5276 28.1407 42.2778C28.5065 43.0279 28.7043 43.8489 28.7202 44.6833C28.7361 45.5178 28.5697 46.3457 28.2326 47.1092C30.822 47.9315 33.3616 48.9361 36.0099 49.5083Z" fill="#FFF8E6"/>
<path d="M86.8214 56.9263H99.5745C99.7914 56.5501 99.8804 56.1136 99.8282 55.6824C99.776 55.2513 99.5853 54.8487 99.2848 54.5351C98.9843 54.2216 98.5902 54.0139 98.1617 53.9434C97.7331 53.8729 97.2933 53.9432 96.9082 54.1439C96.8726 53.6962 96.7398 53.2616 96.519 52.8704C96.2981 52.4793 95.9946 52.141 95.6296 51.8793C95.2645 51.6176 94.8468 51.4386 94.4054 51.355C93.9641 51.2714 93.5099 51.2851 93.0744 51.3951C92.6389 51.5052 92.2326 51.7089 91.884 51.9921C91.5354 52.2754 91.2528 52.6313 91.0559 53.035C90.859 53.4387 90.7526 53.8806 90.7441 54.3297C90.7356 54.7788 90.8252 55.2243 91.0066 55.6352C89.6132 56.0772 88.2465 56.618 86.8214 56.9263Z" fill="#F3F0D8"/>
<path d="M75.1762 40.8055H107.51C108.06 39.8516 108.286 38.7451 108.153 37.6521C108.02 36.559 107.537 35.5385 106.775 34.7436C106.013 33.9487 105.014 33.4224 103.928 33.2435C102.841 33.0647 101.726 33.243 100.75 33.7518C100.66 32.6164 100.323 31.5144 99.7636 30.5226C99.2037 29.5308 98.4342 28.6731 97.5086 28.0094C96.5831 27.3457 95.5239 26.8919 94.4049 26.6799C93.2859 26.4678 92.1341 26.5025 91.0299 26.7815C89.9257 27.0605 88.8957 27.5772 88.0118 28.2954C87.1279 29.0136 86.4113 29.916 85.9122 30.9397C85.4131 31.9634 85.1433 33.0837 85.1219 34.2224C85.1004 35.3612 85.3277 36.4908 85.7879 37.5326C82.2545 38.653 78.7895 40.0243 75.1762 40.8055Z" fill="#FFF8E6"/>
<path d="M71.5226 102.057C71.2963 102.104 71.0712 102.151 70.8449 102.196H70.8437C70.6547 102.234 70.4657 102.27 70.2767 102.306C70.1419 102.332 70.0071 102.358 69.8723 102.382C69.7098 102.412 69.5461 102.442 69.3836 102.47C69.2644 102.493 69.1465 102.513 69.0285 102.533C68.878 102.559 68.7276 102.584 68.5771 102.608C68.3942 102.638 68.2124 102.669 68.0294 102.697L67.9765 102.705C67.7995 102.732 67.6226 102.759 67.4468 102.785C67.0701 102.841 66.6941 102.893 66.319 102.942C66.0782 102.973 65.8383 103.003 65.5992 103.031C65.3861 103.056 65.173 103.08 64.9612 103.103C64.8408 103.118 64.7204 103.13 64.6013 103.14C64.5074 103.151 64.4135 103.161 64.3196 103.169C64.2041 103.181 64.0885 103.192 63.9742 103.202C63.8201 103.217 63.6648 103.231 63.5107 103.243C63.4794 103.246 63.4481 103.249 63.418 103.251C63.1978 103.27 62.9775 103.287 62.7584 103.303C62.7464 103.304 62.7331 103.305 62.7211 103.305C62.5165 103.32 62.3118 103.334 62.1072 103.346C62.0723 103.349 62.0374 103.351 62.0025 103.352C61.828 103.363 61.6546 103.373 61.4813 103.381C61.1936 103.397 60.9071 103.409 60.6218 103.42C59.8972 103.446 59.1593 103.459 58.4082 103.459C58.1964 103.459 57.9833 103.458 57.7703 103.456C57.5801 103.455 57.3875 103.452 57.1961 103.447C57.1142 103.446 57.0324 103.445 56.9505 103.443C56.7808 103.439 56.6099 103.434 56.4378 103.429C56.4293 103.43 56.4209 103.429 56.4125 103.428C56.1874 103.422 55.9623 103.414 55.736 103.404C55.3231 103.387 54.9079 103.367 54.4902 103.343C54.4661 103.341 54.442 103.339 54.4192 103.338C54.3481 103.334 54.2783 103.329 54.2073 103.325C54.0316 103.314 53.8546 103.303 53.6777 103.29C53.5152 103.279 53.3527 103.267 53.189 103.254C52.9133 103.233 52.6377 103.21 52.362 103.185C52.2717 103.178 52.1803 103.169 52.09 103.161C51.9841 103.151 51.8769 103.14 51.7698 103.131C51.6904 103.122 51.6097 103.115 51.5303 103.107C51.0536 103.059 50.5753 103.006 50.0955 102.948C49.8848 102.923 49.6742 102.897 49.4635 102.87C49.313 102.85 49.1626 102.83 49.0133 102.809C48.8942 102.794 48.7762 102.777 48.657 102.76C48.2129 102.699 47.7687 102.631 47.3245 102.561C47.3239 102.562 47.3232 102.561 47.3226 102.561C47.322 102.561 47.3214 102.561 47.3209 102.56C47.1789 102.539 47.0368 102.515 46.8948 102.492C46.7528 102.469 46.6083 102.443 46.4639 102.419C46.3255 102.395 46.187 102.371 46.0486 102.346C45.7657 102.297 45.4825 102.244 45.1988 102.19C45.0604 102.164 44.9231 102.138 44.7859 102.11C44.6752 102.09 44.5644 102.068 44.4549 102.045V102.044L44.6956 98.5182V98.517L44.828 96.5983H45.1025L47.4834 96.5971H47.5304L47.5857 96.5983H47.5869L58.2842 96.5959H58.2854L58.5743 96.5947H58.7441L60.6953 96.5935H60.6977L60.8939 96.5947H60.9119L67.0267 96.5935L68.1041 96.5923H69.0574L69.2717 96.5935L70.8437 96.5923H70.9568V96.5959L71.1855 98.7951L71.413 100.992L71.4142 101.001V101.006L71.4347 101.212V101.213L71.5226 102.057Z" fill="#FFC700"/>
<path d="M70.9565 96.5918L44.6962 98.5169L44.8274 96.5978L70.9565 96.5918Z" fill="#4863C9"/>
<path d="M58.1886 101.195L58.647 101.197L58.6236 96.5871L58.1642 96.5845L58.1886 101.195Z" fill="#4863C9"/>
<path d="M59.1696 99.815C59.3755 99.8248 59.5812 99.7937 59.775 99.7234C59.9688 99.6532 60.1467 99.5452 60.2984 99.4057C61.2025 98.5411 60.799 96.6313 60.7816 96.5503L60.3336 96.6447C60.3373 96.6619 60.7002 98.3839 59.9804 99.0712C59.6625 99.3748 59.1532 99.4341 58.4669 99.2473L58.3508 99.6917C58.6173 99.7681 58.8925 99.8096 59.1696 99.815Z" fill="#4863C9"/>
<path d="M44.6092 101.68C44.921 101.691 45.2317 101.637 45.521 101.52C45.8103 101.403 46.0718 101.227 46.2884 101.003C47.5932 99.6424 47.2393 96.7105 47.224 96.5862L46.7646 96.6376C46.7682 96.6659 47.1069 99.4783 45.9518 100.681C45.558 101.091 45.0438 101.263 44.3814 101.207L44.3488 101.668C44.4372 101.675 44.5241 101.679 44.6092 101.68Z" fill="#4863C9"/>
<path d="M70.9328 101.25C71.0685 101.25 71.2038 101.236 71.3366 101.208L71.2435 100.759C71.0649 100.806 70.8776 100.809 70.6976 100.768C70.5175 100.727 70.35 100.643 70.2092 100.524C69.0963 99.5848 69.1499 96.6177 69.1513 96.5876L68.6953 96.574C68.6924 96.7051 68.6378 99.795 69.9184 100.874C70.2001 101.118 70.5603 101.252 70.9328 101.25Z" fill="#4863C9"/>
<path d="M82.7996 78.4514L74.5699 85.0922L71.0154 77.9844V96.596H44.8288V77.7039L40.8072 84.1569L32.6702 76.7686L40.8337 63.5808C41.4355 62.6086 42.2757 61.8062 43.2747 61.2498C44.2736 60.6935 45.3982 60.4016 46.5416 60.4019H69.0906C70.0957 60.4017 71.0879 60.6274 71.994 61.0622C72.9001 61.497 73.6969 62.1299 74.3255 62.914C74.5825 63.2334 74.8094 63.5759 75.0032 63.9371L82.7996 78.4514Z" fill="#FFCC4A"/>
<path d="M64.8059 48.4943C64.8059 48.4943 65.3776 51.1425 64.8781 51.6646C64.3787 52.1868 62.4079 47.0845 64.8059 48.4943Z" fill="black"/>
<path d="M57.3722 45.3831L64.1354 47.4017C66.8692 58.4818 62.0319 58.413 62.0319 58.413L62.1928 60.131C62.241 60.6457 62.1783 61.1648 62.0089 61.6533C61.8395 62.1417 61.5673 62.5882 61.2108 62.9626C60.8542 63.3369 60.4215 63.6305 59.9419 63.8234C59.4622 64.0164 58.9468 64.1043 58.4303 64.0811C57.9558 64.0599 57.4902 63.9455 57.06 63.7443C56.6298 63.5431 56.2434 63.2591 55.9229 62.9086C55.6024 62.5581 55.3541 62.1479 55.1922 61.7015C55.0302 61.255 54.9578 60.781 54.979 60.3066L55.3115 52.8732L54.0144 52.8152C53.756 52.8037 53.5025 52.7414 53.2682 52.6318C53.034 52.5223 52.8236 52.3677 52.6491 52.1768C52.4746 51.986 52.3394 51.7626 52.2512 51.5195C52.163 51.2764 52.1236 51.0183 52.1352 50.76C52.1384 50.6887 52.1449 50.6176 52.1544 50.5467C52.2389 49.9286 52.5654 49.3694 53.0621 48.992C53.5589 48.6147 54.1852 48.4501 54.8033 48.5345L55.4834 48.6273L57.3722 45.3831Z" fill="#FFC1C2"/>
<path d="M64.4323 48.5692C64.4195 48.5699 64.4109 48.57 64.4046 48.5704C62.1143 48.7009 59.3851 48.2406 58.1539 48C57.9781 47.9671 57.7963 47.9956 57.639 48.0807C57.4817 48.1658 57.3584 48.3023 57.2896 48.4674C56.9659 49.2176 56.4214 49.8912 55.9918 50.3498C55.9435 50.4009 55.8808 50.4359 55.8119 50.4501C55.7431 50.4643 55.6716 50.457 55.6071 50.4292C55.5426 50.4013 55.4882 50.3543 55.4513 50.2945C55.4144 50.2347 55.3968 50.165 55.4009 50.0949L55.466 48.9429C55.4709 48.8569 55.4431 48.7722 55.3883 48.7057C55.3335 48.6392 55.2556 48.5958 55.1703 48.5841L54.8038 48.5343C54.4978 48.4924 54.1865 48.5111 53.8877 48.5895C53.589 48.6679 53.3085 48.8044 53.0625 48.9912C52.8165 49.178 52.6097 49.4114 52.4539 49.6781C52.2981 49.9448 52.1963 50.2396 52.1545 50.5457C52.1449 50.6167 52.1388 50.6877 52.1352 50.7599C52.134 50.79 52.1328 50.8189 52.1328 50.849C52.1333 51.3558 52.3292 51.8428 52.6796 52.2089C53.03 52.575 53.508 52.792 54.0142 52.8147L55.3118 52.8724L55.171 56.0081C47.6141 47.351 53.5977 43.0839 53.5977 43.0839C53.5839 42.3497 54.2031 42.1336 54.7665 42.0878C55.1584 42.0639 55.5485 42.1571 55.8872 42.3556C57.0826 43.023 59.0657 41.6498 61.151 41.1231C61.9487 40.9215 64.8825 40.1803 66.1205 41.4888C67.8034 43.2675 66.0068 48.4672 64.4323 48.5692Z" fill="black"/>
<path d="M53.2278 51.0207C53.2257 51.0142 53.0391 50.3514 53.3698 49.9634C53.5896 49.7058 53.9998 49.612 54.5905 49.6846L54.635 49.3209C53.9138 49.2327 53.3936 49.3691 53.0898 49.7275C52.6318 50.2679 52.8662 51.0889 52.8764 51.1238L53.2278 51.0207Z" fill="#ED9C9C"/>
<path d="M63.5304 53.307L62.3545 50.7705L62.0221 50.9243L63.0497 53.1412L61.6688 53.8466L61.8354 54.1727L63.5304 53.307Z" fill="#ED9C9C"/>
<path d="M63.8826 50.7226C63.9077 50.981 64.0511 51.1791 64.2013 51.1648C64.3516 51.1505 64.4541 50.9277 64.4287 50.6693C64.4239 50.6183 64.4137 50.568 64.3981 50.5193C64.3792 50.4482 64.3457 50.3818 64.2997 50.3244C64.1874 50.3183 64.0748 50.3195 63.9626 50.3279C63.9244 50.3857 63.8993 50.4512 63.8892 50.5198C63.878 50.5868 63.8758 50.655 63.8826 50.7226Z" fill="black"/>
<path d="M58.4788 49.3668C58.4761 49.3535 58.4761 49.3398 58.4788 49.3265C58.4815 49.3132 58.4867 49.3006 58.4942 49.2893C58.5018 49.278 58.5115 49.2683 58.5228 49.2608C58.5341 49.2533 58.5467 49.2481 58.56 49.2455L60.5717 48.8294C60.6748 48.808 60.7821 48.8228 60.8756 48.8712C60.9692 48.9196 61.0432 48.9987 61.0853 49.0953L61.1265 49.1902C61.1467 49.2364 61.1546 49.2871 61.1496 49.3373C61.1445 49.3874 61.1266 49.4355 61.0975 49.4767C61.0685 49.5179 61.0293 49.551 60.9838 49.5727C60.9382 49.5943 60.8879 49.6039 60.8376 49.6004L58.5736 49.4497C58.5509 49.4483 58.5292 49.4394 58.5121 49.4244C58.4949 49.4094 58.4832 49.3892 58.4788 49.3668Z" fill="black"/>
<path d="M65.0562 49.1084C65.0573 49.0966 65.0561 49.0846 65.0527 49.0733C65.0492 49.0619 65.0435 49.0514 65.0359 49.0422C65.0284 49.0331 65.0191 49.0255 65.0086 49.0199C64.9981 49.0144 64.9866 49.0109 64.9748 49.0098L63.1839 48.8347C63.0921 48.8257 63.0001 48.8486 62.9231 48.8994C62.8462 48.9503 62.789 49.0261 62.7613 49.114L62.7341 49.2006C62.7207 49.2426 62.7184 49.2875 62.7273 49.3307C62.7363 49.3739 62.7563 49.4141 62.7854 49.4473C62.8144 49.4805 62.8516 49.5057 62.8932 49.5204C62.9348 49.535 62.9795 49.5387 63.023 49.531L64.9809 49.1889C65.0006 49.1857 65.0187 49.176 65.0323 49.1615C65.0459 49.1469 65.0543 49.1282 65.0562 49.1084Z" fill="black"/>
<path d="M62.1953 60.153C60.7753 59.9699 59.4631 59.2985 58.4838 58.2539C59.5721 58.6716 62.0322 58.4127 62.0322 58.4127L62.1953 60.153Z" fill="#ED9C9C"/>
<path d="M73.7629 39.3228C73.1892 39.1217 72.5637 39.1239 71.9913 39.3292C71.9225 39.3529 71.8596 39.3912 71.807 39.4416C71.7545 39.4919 71.7134 39.5531 71.6868 39.6209C71.6602 39.6887 71.6486 39.7614 71.6528 39.8341C71.6571 39.9068 71.677 39.9777 71.7114 40.0419L71.716 40.0513C71.7737 40.1563 71.8664 40.2377 71.978 40.2814C72.0895 40.3251 72.2129 40.3283 72.3266 40.2904C72.6254 40.1882 72.9497 40.1882 73.2485 40.2904C73.8086 40.4903 74.0099 40.9575 73.8275 41.472C73.5333 42.3026 72.1457 42.4522 71.5209 43.4858C71.4651 43.5778 71.4357 43.6834 71.4359 43.7911C71.4357 43.9142 71.4737 44.0344 71.5447 44.1351C71.6157 44.2357 71.7163 44.3117 71.8325 44.3527C71.9606 44.4 72.1014 44.4009 72.2302 44.3552C72.3589 44.3095 72.4676 44.2201 72.5373 44.1026C73.1163 43.0925 74.633 43.0391 75.0688 41.8134C75.4869 40.6349 74.8985 39.7257 73.7629 39.3228ZM71.5509 45.1246C71.3845 45.0566 71.2015 45.04 71.0256 45.0768C70.8496 45.1136 70.6887 45.2023 70.5636 45.3313C70.4384 45.4603 70.3547 45.6239 70.3233 45.8009C70.2918 45.9779 70.3141 46.1602 70.3871 46.3245C70.4602 46.4887 70.5807 46.6274 70.7332 46.7225C70.8857 46.8177 71.0632 46.8651 71.2429 46.8586C71.4225 46.852 71.5961 46.7919 71.7413 46.6859C71.8865 46.5799 71.9966 46.4328 72.0575 46.2637C72.1017 46.1559 72.1235 46.0403 72.1218 45.9239C72.12 45.8074 72.0947 45.6925 72.0473 45.5861C71.9999 45.4797 71.9315 45.3841 71.8461 45.3048C71.7607 45.2256 71.6602 45.1645 71.5505 45.1252L71.5509 45.1246Z" fill="black"/>
<path d="M45.9071 44.2309C45.5033 44.3683 45.1591 44.6403 44.9321 45.0013C44.9044 45.0442 44.8863 45.0925 44.8791 45.1431C44.8719 45.1936 44.8757 45.2451 44.8904 45.294C44.905 45.3429 44.9301 45.388 44.9639 45.4263C44.9976 45.4646 45.0393 45.495 45.086 45.5156L45.0928 45.5188C45.17 45.5517 45.2564 45.5565 45.3369 45.5323C45.4173 45.5081 45.4867 45.4565 45.5329 45.3864C45.6535 45.2006 45.8325 45.0602 46.0416 44.9873C46.4371 44.8549 46.7504 45.0258 46.8722 45.3886C47.0694 45.9744 46.3686 46.6572 46.4712 47.4978C46.4803 47.5725 46.5098 47.6433 46.5565 47.7024C46.6096 47.7705 46.6826 47.8203 46.7653 47.8451C46.848 47.8699 46.9364 47.8684 47.0182 47.8407C47.1095 47.8114 47.1875 47.751 47.2388 47.67C47.2901 47.589 47.3113 47.4926 47.2988 47.3976C47.1812 46.5898 47.9948 45.9041 47.7048 45.0393C47.4259 44.2087 46.7081 43.9615 45.9071 44.2309ZM47.1972 48.3894C47.076 48.4239 46.9678 48.4938 46.8867 48.5903C46.8056 48.6868 46.7552 48.8053 46.7419 48.9307C46.7287 49.056 46.7533 49.1824 46.8126 49.2937C46.8718 49.4049 46.963 49.4959 47.0744 49.5549C47.1858 49.6139 47.3123 49.6383 47.4376 49.6248C47.5629 49.6113 47.6813 49.5606 47.7776 49.4793C47.8739 49.398 47.9437 49.2897 47.9779 49.1684C48.0121 49.0471 48.0093 48.9183 47.9697 48.7986C47.9475 48.72 47.9096 48.6467 47.8582 48.5831C47.8069 48.5195 47.7432 48.467 47.671 48.4288C47.5988 48.3905 47.5196 48.3673 47.4381 48.3605C47.3567 48.3538 47.2747 48.3636 47.1972 48.3894Z" fill="black"/>
<path d="M62.3225 55.8494L62.4026 55.5294C61.5827 55.3239 60.7423 55.2109 59.8972 55.1924L59.89 55.5222C60.7105 55.5401 61.5264 55.6499 62.3225 55.8494Z" fill="#ED9C9C"/>
<path d="M62.83 50.5283C62.8341 50.5285 62.8381 50.5285 62.8421 50.5283L64.7533 50.4433C64.7707 50.4429 64.7879 50.4391 64.8038 50.432C64.8197 50.4249 64.834 50.4147 64.8459 50.402C64.8578 50.3893 64.867 50.3743 64.873 50.3579C64.8791 50.3416 64.8817 50.3242 64.8809 50.3068C64.8801 50.2894 64.8759 50.2724 64.8684 50.2567C64.8609 50.241 64.8503 50.2269 64.8373 50.2153C64.8243 50.2038 64.8091 50.1949 64.7926 50.1893C64.7761 50.1837 64.7587 50.1815 64.7413 50.1827L62.8299 50.2677C62.7965 50.2693 62.7651 50.2837 62.742 50.3079C62.7189 50.3321 62.706 50.3642 62.7059 50.3976C62.7058 50.431 62.7185 50.4632 62.7414 50.4875C62.7643 50.5118 62.7957 50.5264 62.8291 50.5283H62.83Z" fill="black"/>
<path d="M59.9565 50.752C59.9816 51.0104 60.125 51.2086 60.2752 51.1942C60.4254 51.1799 60.528 50.9571 60.5027 50.6987C60.4981 50.6476 60.4879 50.5972 60.4725 50.5483C60.4536 50.4772 60.42 50.4109 60.374 50.3535C60.2617 50.3474 60.1491 50.3485 60.037 50.3569C59.9988 50.4148 59.9738 50.4803 59.9637 50.5488C59.9522 50.6159 59.9497 50.6843 59.9565 50.752Z" fill="black"/>
<path d="M58.9406 50.5817C58.9447 50.5819 58.9487 50.5819 58.9527 50.5817L60.864 50.4967C60.898 50.4943 60.9296 50.4787 60.9523 50.4533C60.9749 50.4278 60.9866 50.3945 60.9851 50.3605C60.9835 50.3265 60.9687 50.2945 60.9439 50.2713C60.919 50.248 60.886 50.2354 60.852 50.2361L58.9406 50.3211C58.9073 50.3227 58.8758 50.3371 58.8527 50.3613C58.8296 50.3855 58.8167 50.4176 58.8166 50.451C58.8165 50.4844 58.8292 50.5166 58.8521 50.5409C58.8751 50.5652 58.9064 50.5798 58.9398 50.5817H58.9406Z" fill="black"/>
<path d="M71.0157 73.3081L74.5696 85.0922L71.0157 77.9844V73.3081Z" fill="#ECAB04"/>
<path d="M44.8286 73.3081L40.8071 84.157L44.8286 77.7038V73.3081Z" fill="#ECAB04"/>
<path d="M71.1612 72.0923H70.8702V77.9844H71.1612V72.0923Z" fill="#ECAB04"/>
<path d="M44.9742 72.0923H44.6831V77.9844H44.9742V72.0923Z" fill="#ECAB04"/>
<path d="M39.9502 83.3786L37.5234 86.6166C37.2596 86.9684 36.9205 87.2569 36.5309 87.4609C36.1413 87.6648 35.711 87.7791 35.2715 87.7954C34.832 87.8116 34.3945 87.7294 33.9909 87.5548C33.5873 87.3802 33.2278 87.1176 32.9387 86.7862L17.501 69.0844L22.4294 64.7036L39.9502 83.3786Z" fill="#FFC1C2"/>
<path d="M74.7513 84.9252L77.0829 88.083C77.3508 88.446 77.6972 88.7439 78.0962 88.9545C78.4952 89.1652 78.9366 89.2832 79.3875 89.2997C79.8384 89.3163 80.2872 89.231 80.7006 89.0501C81.114 88.8693 81.4812 88.5976 81.7751 88.2552L96.9998 70.52L92.4066 66.3772L74.7513 84.9252Z" fill="#FFC1C2"/>
<path d="M117.619 51.6934L105.146 42.4496C104.523 41.9882 103.645 42.1189 103.183 42.7414L90.2642 60.1738C89.8028 60.7963 89.9335 61.6749 90.556 62.1362L103.029 71.3801C103.652 71.8414 104.53 71.7108 104.992 71.0883L117.911 53.6559C118.372 53.0334 118.241 52.1547 117.619 51.6934Z" fill="#FFC700"/>
<path d="M102.823 69.4761L91.919 61.6985C91.499 61.3989 91.4736 60.8701 91.8541 60.5178C96.885 55.8705 100.999 50.3198 103.981 44.1544C104.204 43.6932 104.708 43.5605 105.116 43.8627L115.362 51.4561C115.561 51.6138 115.703 51.832 115.766 52.0775C115.83 52.323 115.812 52.5826 115.715 52.817C112.949 58.9947 109.062 64.6064 104.251 69.3679C104.06 69.5435 103.815 69.6496 103.556 69.6692C103.297 69.6888 103.039 69.6208 102.823 69.4761Z" fill="#4863C9"/>
<path d="M102.555 68.6936L92.3296 61.1161C91.9219 60.8139 91.9022 60.293 92.2782 59.9451C97.1303 55.458 101.1 50.1021 103.981 44.1542C104.204 43.6934 104.708 43.5604 105.116 43.8627L115.341 51.4402C115.543 51.6007 115.687 51.8238 115.748 52.0746C115.81 52.3254 115.787 52.5896 115.682 52.8257C112.8 58.7736 108.831 64.1294 103.979 68.6166C103.784 68.7856 103.538 68.8849 103.28 68.8988C103.022 68.9127 102.767 68.8406 102.555 68.6936Z" fill="white"/>
<path d="M113.668 47.7761L110.043 45.0894C109.851 44.9471 109.58 44.9874 109.438 45.1794L108.251 46.7808C108.109 46.9728 108.149 47.2437 108.341 47.386L111.966 50.0728C112.158 50.215 112.429 50.1747 112.571 49.9828L113.758 48.3813C113.901 48.1893 113.86 47.9184 113.668 47.7761Z" fill="#4863C9"/>
<path d="M112.611 54.035L104.596 48.0952C104.556 48.0641 104.522 48.025 104.497 47.9803C104.473 47.9356 104.457 47.8863 104.453 47.8355C104.448 47.7846 104.454 47.7333 104.47 47.6848C104.486 47.6363 104.511 47.5916 104.545 47.5535C104.572 47.5098 104.607 47.4721 104.649 47.4426C104.691 47.4132 104.738 47.3927 104.788 47.3825C104.838 47.3723 104.89 47.3725 104.94 47.3832C104.99 47.3939 105.037 47.4148 105.079 47.4446L113.094 53.384C113.185 53.4493 113.248 53.5468 113.27 53.6566C113.291 53.7665 113.271 53.8805 113.212 53.9757C113.138 54.0599 113.035 54.1128 112.923 54.1239C112.812 54.1349 112.7 54.1031 112.611 54.035Z" fill="#4863C9"/>
<path d="M110.611 57.4416L102.596 51.5018C102.555 51.4707 102.521 51.4316 102.497 51.387C102.472 51.3423 102.457 51.2929 102.452 51.2421C102.447 51.1912 102.453 51.1399 102.469 51.0914C102.485 51.0429 102.511 50.9982 102.545 50.9601C102.571 50.9164 102.607 50.8786 102.648 50.8492C102.69 50.8197 102.738 50.7992 102.788 50.789C102.838 50.7788 102.889 50.779 102.939 50.7897C102.989 50.8004 103.037 50.8214 103.078 50.8512L111.093 56.7906C111.184 56.8559 111.247 56.9534 111.269 57.0632C111.291 57.1731 111.27 57.2871 111.211 57.3823C111.137 57.4665 111.034 57.5195 110.923 57.5305C110.811 57.5415 110.7 57.5097 110.611 57.4416Z" fill="#4863C9"/>
<path d="M108.272 60.5975L100.256 54.6577C100.216 54.6266 100.182 54.5876 100.157 54.5429C100.133 54.4982 100.117 54.4488 100.113 54.398C100.108 54.3471 100.114 54.2958 100.13 54.2473C100.146 54.1988 100.172 54.1541 100.206 54.116C100.232 54.0723 100.267 54.0345 100.309 54.005C100.351 53.9755 100.398 53.955 100.448 53.9448C100.499 53.9345 100.55 53.9348 100.6 53.9455C100.65 53.9562 100.698 53.9771 100.739 54.007C103.411 55.9868 106.082 57.9668 108.754 59.9468C108.845 60.012 108.908 60.1095 108.93 60.2193C108.952 60.3292 108.931 60.4432 108.872 60.5384C108.798 60.6225 108.695 60.6753 108.584 60.6863C108.472 60.6973 108.361 60.6655 108.272 60.5975Z" fill="#4863C9"/>
<path d="M100.081 69.1947C99.0359 70.1054 97.6239 71.1362 96.4397 71.2948C94.2538 71.5872 92.1632 67.1084 92.1632 67.1084C92.1632 67.1084 92.1501 65.9679 92.8761 63.8547C93.0747 63.2769 93.3285 62.6261 93.653 61.906C93.7271 61.742 93.8554 61.6085 94.0164 61.5281C94.1774 61.4476 94.3612 61.4251 94.5368 61.4644L96.2026 61.8375L96.6776 61.943C96.7038 61.9486 96.7294 61.9567 96.754 61.9671C96.8195 61.994 96.8778 62.0357 96.9245 62.089C96.9711 62.1422 97.0047 62.2056 97.0227 62.2741C97.0406 62.3425 97.0425 62.4142 97.028 62.4835C97.0136 62.5528 96.9832 62.6178 96.9394 62.6734C96.7328 62.9301 96.3764 63.1885 95.7662 63.2641C95.6279 63.2816 95.4886 63.2894 95.3493 63.2874C95.3493 63.2874 95.3908 63.4627 95.4236 63.7151C95.4889 64.2366 95.5145 65.0873 95.0359 65.3699C95.0359 65.3714 95.0373 65.3728 95.0387 65.3728C95.0415 65.3759 95.0446 65.3787 95.0481 65.3809L98.8911 68.305L99.3021 68.618L100.081 69.1947Z" fill="#FFC1C2"/>
<path d="M81.7635 77.5583L75.843 86.4036L74.7513 84.9251L81.7635 77.5583Z" fill="#ED9C9C"/>
<path d="M33.4993 76.5029L39.1279 84.4758L39.9502 83.3787L33.4993 76.5029Z" fill="#ED9C9C"/>
<path d="M25.3687 56.0559L25.1684 55.8049C24.9396 55.5184 24.5219 55.4716 24.2354 55.7003L12.8738 64.7705C12.5872 64.9993 12.5404 65.417 12.7691 65.7035L12.9695 65.9545C13.1982 66.241 13.6159 66.2878 13.9024 66.0591L25.2641 56.9889C25.5506 56.7601 25.5975 56.3424 25.3687 56.0559Z" fill="#FFC700"/>
<path d="M21.8754 59.547L20.9903 58.4383C20.7392 58.1238 20.2808 58.0724 19.9663 58.3235L12.5417 64.2507C12.2272 64.5017 12.1758 64.9602 12.4268 65.2747L13.3119 66.3834C13.563 66.6978 14.0215 66.7493 14.3359 66.4982L21.7605 60.571C22.075 60.3199 22.1264 59.8615 21.8754 59.547Z" fill="black"/>
<path d="M27.6929 59.4326C30.6959 59.4326 33.1304 56.9982 33.1304 53.9951C33.1304 50.9921 30.6959 48.5576 27.6929 48.5576C24.6898 48.5576 22.2554 50.9921 22.2554 53.9951C22.2554 56.9982 24.6898 59.4326 27.6929 59.4326Z" fill="#FFC700"/>
<path d="M27.6928 58.4589C30.158 58.4589 32.1564 56.4605 32.1564 53.9953C32.1564 51.5301 30.158 49.5317 27.6928 49.5317C25.2277 49.5317 23.2292 51.5301 23.2292 53.9953C23.2292 56.4605 25.2277 58.4589 27.6928 58.4589Z" fill="black"/>
<path d="M24.3537 52.8745C24.3191 52.8313 24.297 52.7794 24.2899 52.7245C24.2828 52.6696 24.2909 52.6138 24.3133 52.5632C24.6906 51.7063 25.3779 51.0236 26.2374 50.6523C27.0969 50.2809 28.065 50.2482 28.9476 50.5607C29.0219 50.5885 29.0823 50.6444 29.1158 50.7163C29.1494 50.7881 29.1533 50.8703 29.1269 50.9451C29.1005 51.0199 29.0458 51.0813 28.9746 51.1162C28.9033 51.151 28.8212 51.1566 28.746 51.1315C28.0072 50.8697 27.1968 50.897 26.4773 51.2079C25.7578 51.5189 25.1825 52.0904 24.8669 52.8078C24.8459 52.8554 24.8129 52.8967 24.7713 52.9279C24.7296 52.959 24.6806 52.9789 24.6291 52.9856C24.5775 52.9923 24.525 52.9856 24.4768 52.9661C24.4286 52.9467 24.3861 52.9151 24.3537 52.8745Z" fill="white"/>
<path d="M24.3107 55.4566C24.3059 55.4506 24.3012 55.4445 24.2969 55.438C24.1278 55.1831 24.0148 54.8952 23.9652 54.5934C23.9157 54.2915 23.9307 53.9826 24.0093 53.687C24.0339 53.6115 24.0873 53.5487 24.1578 53.5122C24.2283 53.4757 24.3104 53.4683 24.3863 53.4917C24.4622 53.5151 24.5258 53.5674 24.5635 53.6373C24.6012 53.7072 24.6099 53.7891 24.5878 53.8654C24.5349 54.0739 24.5262 54.2912 24.5622 54.5033C24.5982 54.7154 24.6781 54.9177 24.7969 55.097C24.8406 55.1617 24.8576 55.2407 24.8444 55.3177C24.8313 55.3946 24.7889 55.4634 24.7261 55.5098C24.6634 55.5562 24.5851 55.5766 24.5077 55.5667C24.4303 55.5568 24.3597 55.5173 24.3107 55.4566Z" fill="white"/>
<path d="M23.4823 65.7942L22.6983 65.029C22.5221 64.857 22.4048 64.6337 22.3634 64.391C22.1576 63.1885 21.4076 59.4428 20.0211 59.2216L19.46 58.6593C19.2143 58.2454 18.4952 58.1507 18.0921 58.4256C17.7442 58.663 17.3994 59.1364 17.5838 59.5151L17.6001 59.4679C17.6001 59.4679 15.9596 59.4862 15.7894 60.3997C15.7894 60.3997 14.348 60.2191 14.1403 61.4335C13.9424 61.4187 13.2964 61.3948 12.8615 61.8352C12.73 61.9761 12.6285 62.1422 12.5631 62.3235C12.4897 62.5421 12.3263 63.2831 14.8314 66.3256C15.4621 67.0916 15.7872 67.4838 16.2681 67.9303C16.8398 68.4612 17.0947 68.5887 17.5632 69.1269C17.7699 69.3642 18.9106 70.4082 18.9106 70.4082L20.2157 71.9812L23.4823 65.7942Z" fill="#FFC1C2"/>
<path d="M19.1703 61.7651L18.9137 61.9216L19.3191 62.586L19.5757 62.4294L19.1703 61.7651Z" fill="#E29474"/>
<path d="M19.4726 64.0924C19.3813 64.1872 19.2722 64.263 19.1515 64.3155C18.8069 64.4637 18.3855 64.403 17.8986 64.1349L18.043 63.8715C18.4444 64.0925 18.7773 64.149 19.0322 64.0393C19.363 63.8968 19.5121 63.4926 19.5718 63.2642L19.8625 63.3401C19.7983 63.6198 19.6642 63.8787 19.4726 64.0924Z" fill="#ED9C9C"/>
<path d="M20.3125 64.1967C20.0307 64.0907 19.7845 63.8107 19.581 63.3645C19.4635 63.1 19.3702 62.8255 19.3021 62.5443C19.2408 62.306 19.1993 62.0915 19.1736 61.9411L18.2468 62.4687C17.923 62.6964 17.5343 62.8135 17.1386 62.8025C16.2253 62.7565 15.6461 61.9511 15.622 61.9168L15.5291 61.7855L19.944 59.0938L20.1005 59.3503L15.9709 61.8683C16.1587 62.0764 16.5886 62.4739 17.1541 62.5023C17.4891 62.5093 17.8175 62.408 18.0903 62.2134L19.4109 61.4601L19.4387 61.6841C19.4754 61.9491 19.5271 62.2117 19.5936 62.4707C19.6574 62.7345 19.7447 62.9919 19.8546 63.24C20.024 63.6116 20.2137 63.8389 20.4186 63.9159L20.3125 64.1967Z" fill="#ED9C9C"/>
<path d="M17.8268 64.908C17.7981 64.9374 17.7672 64.9646 17.7344 64.9894C17.4511 65.2027 17.0428 65.2209 16.5186 65.0444C16.5232 65.3211 16.4199 65.5887 16.2306 65.7907C15.9778 66.0335 15.5853 66.101 15.0636 65.9914L15.1238 65.7069C15.5451 65.7955 15.8491 65.7533 16.0286 65.5819C16.2934 65.3281 16.2193 64.8597 16.2186 64.8545L16.1765 64.5979L16.4173 64.6964C16.9428 64.9122 17.3273 64.9327 17.5598 64.7575C17.8427 64.5449 17.8385 64.0749 17.8321 63.9525L17.0526 62.6757L17.3007 62.5242L18.1155 63.8587L18.1191 63.8909C18.1216 63.9188 18.1854 64.5404 17.8268 64.908Z" fill="#ED9C9C"/>
<path d="M14.2933 61.4309L14.041 61.5952L16.2064 64.9196L16.4587 64.7553L14.2933 61.4309Z" fill="#ED9C9C"/>
<path d="M17.7195 59.4249L17.4714 59.5764L18.0148 60.4659L18.2629 60.3143L17.7195 59.4249Z" fill="#ED9C9C"/>
<path d="M58.6027 65.4299C56.3277 65.4299 54.3686 63.6725 53.8396 61.1556L53.6862 60.4265L53.9218 60.3769L54.0751 61.1061C54.5807 63.5101 56.4423 65.1892 58.6026 65.1892C60.5249 65.1892 62.2746 63.807 62.9565 61.7498L63.416 60.3638L63.6447 60.4395L63.1851 61.8255C62.4705 63.9815 60.6289 65.4299 58.6027 65.4299Z" fill="white"/>
<path d="M46.7921 60.7076C46.7918 61.3355 46.6022 61.9487 46.2481 62.4673C45.894 62.9858 45.3918 63.3855 44.807 63.6143C44.2223 63.843 43.5821 63.8902 42.9702 63.7496C42.3582 63.609 41.8029 63.2872 41.3766 62.8261C42.0068 62.0676 42.7962 61.4573 43.6889 61.0383C44.5816 60.6193 45.5556 60.402 46.5417 60.4019H46.7776C46.7872 60.5018 46.7921 60.6041 46.7921 60.7076Z" fill="white"/>
<path d="M74.3255 62.914C73.8889 63.3507 73.3326 63.6481 72.727 63.7686C72.1214 63.8892 71.4936 63.8275 70.923 63.5914C70.3524 63.3553 69.8647 62.9553 69.5214 62.442C69.1781 61.9287 68.9947 61.3251 68.9943 60.7076C68.9943 60.6041 68.9991 60.5018 69.0088 60.4019H69.0906C70.0956 60.4017 71.0879 60.6274 71.994 61.0622C72.9 61.497 73.6969 62.1299 74.3255 62.914Z" fill="white"/>
<path d="M33.7468 75.0782L33.579 75.251L41.5187 82.9667L41.6866 82.7939L33.7468 75.0782Z" fill="white"/>
<path d="M81.4069 75.9262L73.6485 83.3286L73.8147 83.5028L81.5731 76.1003L81.4069 75.9262Z" fill="white"/>
<path d="M44.8287 80.7856L46.433 89.3079C46.6908 90.6774 47.3826 91.9275 48.4061 92.8734C49.4295 93.8192 50.7302 94.4106 52.1158 94.5599L71.0154 96.5961H44.8288L44.8287 80.7856Z" fill="#ECAB04"/>
<path d="M65.1823 75.1753C66.7428 75.1753 68.0078 74.3091 68.0078 73.2405C68.0078 72.1719 66.7428 71.3057 65.1823 71.3057C63.6219 71.3057 62.3569 72.1719 62.3569 73.2405C62.3569 74.3091 63.6219 75.1753 65.1823 75.1753Z" fill="white"/>
<path d="M65.1823 74.2857C66.2774 74.2857 67.1652 73.8177 67.1652 73.2404C67.1652 72.6631 66.2774 72.1951 65.1823 72.1951C64.0872 72.1951 63.1995 72.6631 63.1995 73.2404C63.1995 73.8177 64.0872 74.2857 65.1823 74.2857Z" fill="#FFCC4A"/>
</svg>
