<?xml version="1.0" encoding="UTF-8"?>
<svg id="OBJECT" xmlns="http://www.w3.org/2000/svg" xmlns:xlink="http://www.w3.org/1999/xlink" viewBox="0 0 512 512">
  <defs>
    <style>
      .cls-1 {
        fill: url(#New_Gradient_Swatch-7);
      }

      .cls-2 {
        fill: url(#New_Gradient_Swatch-6);
      }

      .cls-3 {
        fill: url(#New_Gradient_Swatch);
      }

      .cls-4 {
        fill: url(#New_Gradient_Swatch-5);
      }

      .cls-5 {
        fill: url(#New_Gradient_Swatch-8);
      }

      .cls-6 {
        fill: url(#New_Gradient_Swatch-4);
      }

      .cls-7 {
        fill: url(#New_Gradient_Swatch-3);
      }

      .cls-8 {
        fill: url(#New_Gradient_Swatch-9);
      }

      .cls-9 {
        fill: url(#New_Gradient_Swatch-2);
      }
    </style>
    <linearGradient id="New_Gradient_Swatch" data-name="New Gradient Swatch" x1="-44.22" y1="256" x2="523.98" y2="256" gradientUnits="userSpaceOnUse">
      <stop offset="0" stop-color="#7738c8"/>
      <stop offset="1" stop-color="#461d93"/>
    </linearGradient>
    <linearGradient id="New_Gradient_Swatch-2" data-name="New Gradient Swatch" y1="376" x2="523.98" y2="376" xlink:href="#New_Gradient_Swatch"/>
    <linearGradient id="New_Gradient_Swatch-3" data-name="New Gradient Swatch" x1="-44.22" y1="357.5" x2="523.98" y2="357.5" xlink:href="#New_Gradient_Swatch"/>
    <linearGradient id="New_Gradient_Swatch-4" data-name="New Gradient Swatch" x1="-44.22" y1="317.5" x2="523.98" y2="317.5" xlink:href="#New_Gradient_Swatch"/>
    <linearGradient id="New_Gradient_Swatch-5" data-name="New Gradient Swatch" y1="317.5" x2="523.98" y2="317.5" xlink:href="#New_Gradient_Swatch"/>
    <linearGradient id="New_Gradient_Swatch-6" data-name="New Gradient Swatch" x1="-44.22" y1="397.5" x2="523.98" y2="397.5" xlink:href="#New_Gradient_Swatch"/>
    <linearGradient id="New_Gradient_Swatch-7" data-name="New Gradient Swatch" x1="-44.22" y1="397.5" x2="523.98" y2="397.5" xlink:href="#New_Gradient_Swatch"/>
    <linearGradient id="New_Gradient_Swatch-8" data-name="New Gradient Swatch" y1="129.52" x2="523.98" y2="129.52" xlink:href="#New_Gradient_Swatch"/>
    <linearGradient id="New_Gradient_Swatch-9" data-name="New Gradient Swatch" y1="142.5" x2="523.98" y2="142.5" xlink:href="#New_Gradient_Swatch"/>
  </defs>
  <path class="cls-3" d="M431,0H121c-4.14,0-7.5,3.36-7.5,7.5v12.5h-17.5c-12.41,0-22.5,10.09-22.5,22.5v10c0,12.41,10.09,22.5,22.5,22.5h17.5v49.25h-17.5c-12.41,0-22.5,10.09-22.5,22.5v10c0,12.41,10.09,22.5,22.5,22.5h17.5v49.25h-17.5c-12.41,0-22.5,10.09-22.5,22.5v10c0,12.41,10.09,22.5,22.5,22.5h17.5v49.25h-17.5c-12.41,0-22.5,10.09-22.5,22.5v10c0,12.41,10.09,22.5,22.5,22.5h17.5v49.25h-17.5c-12.41,0-22.5,10.09-22.5,22.5v10c0,12.41,10.09,22.5,22.5,22.5h17.5v12.5c0,4.14,3.36,7.5,7.5,7.5H431c4.14,0,7.5-3.36,7.5-7.5V7.5c0-4.14-3.36-7.5-7.5-7.5ZM96,60c-4.14,0-7.5-3.36-7.5-7.5v-10c0-4.14,3.36-7.5,7.5-7.5h17.5v25h-17.5Zm0,104.25c-4.14,0-7.5-3.36-7.5-7.5v-10c0-4.14,3.36-7.5,7.5-7.5h17.5v25h-17.5Zm0,104.25c-4.14,0-7.5-3.36-7.5-7.5v-10c0-4.14,3.36-7.5,7.5-7.5h17.5v25h-17.5Zm0,104.25c-4.14,0-7.5-3.36-7.5-7.5v-10c0-4.14,3.36-7.5,7.5-7.5h17.5v25h-17.5Zm0,104.25c-4.14,0-7.5-3.36-7.5-7.5v-10c0-4.14,3.36-7.5,7.5-7.5h17.5v25h-17.5Zm327.5,20H128.5V15H423.5V497Z"/>
  <path class="cls-9" d="M156,477h240c4.14,0,7.5-3.36,7.5-7.5v-187c0-4.14-3.36-7.5-7.5-7.5H156c-4.14,0-7.5,3.36-7.5,7.5v187c0,4.14,3.36,7.5,7.5,7.5Zm7.5-15v-22h225v22H163.5Zm225-172v135H163.5v-135h225Z"/>
  <path class="cls-7" d="M191,365h170c4.14,0,7.5-3.36,7.5-7.5s-3.36-7.5-7.5-7.5H191c-4.14,0-7.5,3.36-7.5,7.5s3.36,7.5,7.5,7.5Z"/>
  <path class="cls-6" d="M231,325h130c4.14,0,7.5-3.36,7.5-7.5s-3.36-7.5-7.5-7.5H231c-4.14,0-7.5,3.36-7.5,7.5s3.36,7.5,7.5,7.5Z"/>
  <path class="cls-4" d="M191,325h10c4.14,0,7.5-3.36,7.5-7.5s-3.36-7.5-7.5-7.5h-10c-4.14,0-7.5,3.36-7.5,7.5s3.36,7.5,7.5,7.5Z"/>
  <path class="cls-2" d="M191,405h130c4.14,0,7.5-3.36,7.5-7.5s-3.36-7.5-7.5-7.5H191c-4.14,0-7.5,3.36-7.5,7.5s3.36,7.5,7.5,7.5Z"/>
  <path class="cls-1" d="M361,390h-10c-4.14,0-7.5,3.36-7.5,7.5s3.36,7.5,7.5,7.5h10c4.14,0,7.5-3.36,7.5-7.5s-3.36-7.5-7.5-7.5Z"/>
  <path class="cls-5" d="M250.44,107.53c-16.54,5.65-30.56,17.86-38.48,33.5-1.87,3.7-.39,8.21,3.31,10.08,1.09,.55,2.24,.81,3.38,.81,2.74,0,5.38-1.5,6.7-4.11,6.16-12.18,17.08-21.68,29.95-26.08,3.92-1.34,6.01-5.6,4.67-9.52-1.34-3.92-5.6-6.01-9.52-4.67Z"/>
  <path class="cls-8" d="M165.15,237.56c3.84,7.67,11.55,12.44,20.12,12.44h181.46c8.58,0,16.29-4.77,20.12-12.44l15.85-31.71c1.16-2.32,1.04-5.09-.33-7.3-1.37-2.21-3.78-3.56-6.38-3.56h-17.5v-17.5c0-45.16-29.36-83.6-70-97.22v-12.78c0-17.92-14.58-32.5-32.5-32.5s-32.5,14.58-32.5,32.5v12.78c-40.64,13.62-70,52.05-70,97.22v17.5h-17.5c-2.6,0-5.01,1.35-6.38,3.56-1.37,2.21-1.49,4.97-.33,7.3l15.85,31.71Zm93.35-170.06c0-9.65,7.85-17.5,17.5-17.5s17.5,7.85,17.5,17.5v9c-5.69-.98-11.53-1.5-17.5-1.5s-11.81,.52-17.5,1.5v-9Zm-70,110c0-48.25,39.25-87.5,87.5-87.5s87.5,39.25,87.5,87.5v17.5H188.5v-17.5Zm195.36,32.5l-10.43,20.85c-1.28,2.56-3.85,4.15-6.71,4.15H185.27c-2.86,0-5.43-1.59-6.71-4.15l-10.43-20.85h215.73Z"/>
</svg>