<?xml version="1.0" encoding="UTF-8"?>
<svg id="OBJECT" xmlns="http://www.w3.org/2000/svg" viewBox="0 0 512 512">
  <path d="M484.5,0H214.5c-15.16,0-27.5,12.34-27.5,27.5V297.5c0,15.16,12.34,27.5,27.5,27.5H484.5c15.16,0,27.5-12.34,27.5-27.5V27.5c0-15.16-12.34-27.5-27.5-27.5Zm12.5,297.5c0,6.89-5.61,12.5-12.5,12.5H214.5c-6.89,0-12.5-5.61-12.5-12.5V27.5c0-6.89,5.61-12.5,12.5-12.5H484.5c6.89,0,12.5,5.61,12.5,12.5V297.5Z"/>
  <path d="M363.17,422.83l-74.55-40.39c-5.46-2.96-11.72-3.54-17.63-1.66-5.91,1.89-10.68,6-13.41,11.57l-13.34,27.16c-61.42-38.55-113.2-90.33-151.75-151.75l27.16-13.33c5.57-2.74,9.68-7.5,11.57-13.41,1.89-5.91,1.3-12.18-1.66-17.63l-40.39-74.55c-4.43-8.18-13.6-12.85-22.83-11.64l-32.54,4.3c-6.81,.9-12.75,4.76-16.3,10.59-10.68,17.51-32.26,67.31-2.06,151.5,15.81,44.08,41.71,84.92,74.89,118.11,33.19,33.19,74.03,59.08,118.11,74.89,31.84,11.42,58.75,15.43,80.87,15.43,36.36,0,59.74-10.85,70.63-17.5,5.83-3.56,9.69-9.5,10.59-16.3l4.3-32.54c1.22-9.22-3.46-18.4-11.64-22.83Zm-3.23,20.86l-4.3,32.54c-.3,2.29-1.59,4.28-3.53,5.46-15.66,9.56-60.53,28.76-138.62,.75-86.04-30.86-153.08-97.9-183.94-183.94-28.01-78.09-8.8-122.96,.75-138.62,1.18-1.94,3.17-3.22,5.46-3.53l32.54-4.3c3.1-.41,6.19,1.16,7.68,3.91l40.39,74.55c.99,1.83,1.19,3.94,.56,5.93-.63,1.99-2.02,3.59-3.89,4.51l-28.35,13.92c-2.18-3.72-4.32-7.47-6.41-11.26-2-3.63-6.55-4.95-10.19-2.96-3.63,2-4.96,6.56-2.96,10.19,45.49,82.75,113.27,150.53,196.01,196.01,1.15,.63,2.38,.93,3.61,.93,2.65,0,5.21-1.4,6.58-3.89,2-3.63,.67-8.19-2.96-10.19-3.79-2.08-7.53-4.23-11.26-6.41l13.92-28.35c.92-1.87,2.52-3.25,4.51-3.89,1.99-.63,4.09-.44,5.93,.56l74.55,40.39c2.75,1.49,4.32,4.57,3.91,7.68Z"/>
  <path d="M323.94,127.53c-16.54,5.65-30.56,17.86-38.48,33.5-1.87,3.7-.39,8.21,3.31,10.08,1.09,.55,2.24,.81,3.38,.81,2.74,0,5.38-1.5,6.7-4.11,6.16-12.18,17.08-21.68,29.95-26.08,3.92-1.34,6.01-5.6,4.67-9.52-1.34-3.92-5.6-6.01-9.52-4.67Z"/>
  <path d="M474.5,30c-4.14,0-7.5,3.36-7.5,7.5v10c0,4.14,3.36,7.5,7.5,7.5s7.5-3.36,7.5-7.5v-10c0-4.14-3.36-7.5-7.5-7.5Z"/>
  <path d="M232,47.5v-10c0-4.14-3.36-7.5-7.5-7.5s-7.5,3.36-7.5,7.5v10c0,4.14,3.36,7.5,7.5,7.5s7.5-3.36,7.5-7.5Z"/>
  <path d="M469.5,215h-17.5v-17.5c0-45.16-29.36-83.6-70-97.22v-12.78c0-17.92-14.58-32.5-32.5-32.5s-32.5,14.58-32.5,32.5v12.78c-40.64,13.62-70,52.05-70,97.22v17.5h-17.5c-2.6,0-5.01,1.35-6.38,3.56-1.37,2.21-1.49,4.97-.33,7.3l15.85,31.71c3.84,7.67,11.55,12.44,20.12,12.44h181.46c8.58,0,16.29-4.77,20.12-12.44l15.85-31.71c1.16-2.32,1.04-5.09-.33-7.3-1.37-2.21-3.78-3.56-6.38-3.56Zm-137.5-127.5c0-9.65,7.85-17.5,17.5-17.5s17.5,7.85,17.5,17.5v9c-5.69-.98-11.53-1.5-17.5-1.5s-11.81,.52-17.5,1.5v-9Zm-70,110c0-48.25,39.25-87.5,87.5-87.5s87.5,39.25,87.5,87.5v17.5h-175v-17.5Zm184.94,53.35c-1.28,2.56-3.85,4.15-6.71,4.15h-181.46c-2.86,0-5.43-1.59-6.71-4.15l-10.43-20.85h215.73l-10.43,20.85Z"/>
</svg>