<?xml version="1.0" encoding="UTF-8"?>
<svg id="OBJECT" xmlns="http://www.w3.org/2000/svg" xmlns:xlink="http://www.w3.org/1999/xlink" viewBox="0 0 512 512">
  <defs>
    <style>
      .cls-1 {
        fill: url(#New_Gradient_Swatch-7);
      }

      .cls-2 {
        fill: url(#New_Gradient_Swatch-6);
      }

      .cls-3 {
        fill: url(#New_Gradient_Swatch);
      }

      .cls-4 {
        fill: url(#New_Gradient_Swatch-5);
      }

      .cls-5 {
        fill: url(#New_Gradient_Swatch-8);
      }

      .cls-6 {
        fill: url(#New_Gradient_Swatch-4);
      }

      .cls-7 {
        fill: url(#New_Gradient_Swatch-3);
      }

      .cls-8 {
        fill: url(#New_Gradient_Swatch-10);
      }

      .cls-9 {
        fill: url(#New_Gradient_Swatch-9);
      }

      .cls-10 {
        fill: url(#New_Gradient_Swatch-11);
      }

      .cls-11 {
        fill: url(#New_Gradient_Swatch-2);
      }
    </style>
    <linearGradient id="New_Gradient_Swatch" data-name="New Gradient Swatch" x1="-31.17" y1="256" x2="490.23" y2="256" gradientUnits="userSpaceOnUse">
      <stop offset="0" stop-color="#7738c8"/>
      <stop offset="1" stop-color="#461d93"/>
    </linearGradient>
    <linearGradient id="New_Gradient_Swatch-2" data-name="New Gradient Swatch" y1="332.5" x2="490.23" y2="332.5" xlink:href="#New_Gradient_Swatch"/>
    <linearGradient id="New_Gradient_Swatch-3" data-name="New Gradient Swatch" y1="206" x2="490.23" y2="206" xlink:href="#New_Gradient_Swatch"/>
    <linearGradient id="New_Gradient_Swatch-4" data-name="New Gradient Swatch" y1="332.5" x2="490.23" y2="332.5" xlink:href="#New_Gradient_Swatch"/>
    <linearGradient id="New_Gradient_Swatch-5" data-name="New Gradient Swatch" y1="90.85" x2="490.23" y2="90.85" xlink:href="#New_Gradient_Swatch"/>
    <linearGradient id="New_Gradient_Swatch-6" data-name="New Gradient Swatch" y1="77.94" x2="490.23" y2="77.94" xlink:href="#New_Gradient_Swatch"/>
    <linearGradient id="New_Gradient_Swatch-7" data-name="New Gradient Swatch" y1="258.13" x2="490.23" y2="258.13" xlink:href="#New_Gradient_Swatch"/>
    <linearGradient id="New_Gradient_Swatch-8" data-name="New Gradient Swatch" y1="280.38" x2="490.23" y2="280.38" xlink:href="#New_Gradient_Swatch"/>
    <linearGradient id="New_Gradient_Swatch-9" data-name="New Gradient Swatch" x1="-31.17" y1="376.01" x2="490.23" y2="376.01" xlink:href="#New_Gradient_Swatch"/>
    <linearGradient id="New_Gradient_Swatch-10" data-name="New Gradient Swatch" x1="-31.17" y1="126" x2="490.23" y2="126" xlink:href="#New_Gradient_Swatch"/>
    <linearGradient id="New_Gradient_Swatch-11" data-name="New Gradient Swatch" y1="322.5" x2="490.23" y2="322.5" xlink:href="#New_Gradient_Swatch"/>
  </defs>
  <path class="cls-3" d="M509.19,364.87c-5.79-15.42-19.55-26.15-35.93-28-10.45-1.19-20.69,1.4-29.14,7.07L291.36,22.35c-6.45-13.58-20.33-22.35-35.36-22.35s-28.91,8.77-35.36,22.35c-1.07,2.25-2.89,4.1-5.12,5.22l-11.58,5.78c-26.75,13.35-55.22,22.87-84.62,28.29-8.43,1.55-16.97,1.48-25.37-.21l-26.74-5.38c-11.98-2.41-24.27,.65-33.72,8.39-9.45,7.74-14.87,19.19-14.87,31.4s5.25,23.28,14.39,31c9.15,7.73,21.16,11.01,32.97,9.02l18.88-3.2c10.89-1.84,22.18-.95,32.64,2.58,3.98,1.34,5.11,4.66,5.41,6.03,.3,1.37,.67,4.85-2.37,7.74-6.63,6.29-14.91,10.33-23.95,11.68l-7.76,1.16c-4.88,.73-13.4,1.01-18.31,.28-7.07-1.06-14.24,.98-19.67,5.62-5.44,4.64-8.59,11.39-8.66,18.53-.07,7.11,3,13.89,8.42,18.61,5.58,4.86,12.96,7.03,20.27,5.95l3.16-.46c5.1-.75,10.27-.84,15.39-.26l21.1,2.38c6,.68,11.87,2.62,17.1,5.62l-59.76,125.82c-8.45-5.68-18.69-8.26-29.14-7.08-16.38,1.85-30.15,12.58-35.93,28-5.81,15.48-2.47,32.68,8.69,44.9,28.5,31.18,65.33,56.94,106.51,74.52,43.1,18.39,89.52,27.72,137.98,27.72s94.89-9.33,137.98-27.72c41.18-17.57,78.01-43.34,106.51-74.52,11.17-12.22,14.5-29.42,8.69-44.9ZM295.81,66.68l136.92,288.24c-6.86,8.56-14.74,16.69-23.48,24.18-40.25,34.49-94.67,53.49-153.24,53.49s-113-19-153.24-53.49c-8.74-7.49-16.62-15.62-23.48-24.18l62.31-131.18c1.68,.27,3.38,.42,5.09,.42,2.79,0,5.59-.36,8.33-1.09,8.71-2.33,16.1-8.25,20.28-16.23l11.06-21.14c5.82-11.11,15.87-19.32,27.6-22.53l.21-.06c22.97-6.18,28.62-27.47,33.6-46.26,5.5-20.72,10.69-40.29,35.77-46.02,4.19-.96,8.3-2.35,12.27-4.15ZM91.13,195.22c-2.78-.31-5.58-.47-8.37-.47-3.64,0-7.28,.27-10.89,.8l-3.16,.46c-2.97,.44-5.97-.45-8.23-2.42-2.14-1.87-3.31-4.41-3.28-7.17,.03-2.84,1.23-5.41,3.39-7.26,2.16-1.84,4.9-2.62,7.71-2.2,6.78,1.02,16.79,.62,22.77-.27l7.76-1.16c12.1-1.81,23.18-7.22,32.05-15.64,5.96-5.66,8.46-13.83,6.69-21.85-1.77-8.03-7.47-14.39-15.26-17.01-12.81-4.32-26.62-5.41-39.94-3.16l-18.88,3.2c-7.44,1.26-15.02-.81-20.79-5.68-5.77-4.87-9.07-12-9.07-19.55s3.42-14.92,9.38-19.8c5.96-4.88,13.71-6.81,21.26-5.29l26.74,5.38c10.29,2.07,20.73,2.15,31.05,.25,30.78-5.67,60.59-15.63,88.6-29.62l11.58-5.78c5.21-2.6,9.46-6.94,11.96-12.2,3.98-8.37,12.54-13.78,21.81-13.78s17.83,5.41,21.81,13.78l11.57,24.35c-2.98,1.33-6.05,2.36-9.17,3.08-33.92,7.75-41.13,34.95-46.93,56.8-5.21,19.65-9.11,31.88-23.04,35.63l-.25,.07c-15.72,4.3-29.18,15.24-36.92,30.04l-11.06,21.14c-2.27,4.34-6.13,7.43-10.87,8.7-4.73,1.27-9.62,.52-13.76-2.11-7.56-4.8-16.25-7.86-25.15-8.87l-21.1-2.38Zm398.29,204.43c-56.56,61.87-141.64,97.35-233.42,97.35s-176.87-35.48-233.42-97.35c-7.45-8.15-9.59-19.19-5.72-29.51,3.85-10.27,12.66-17.13,23.57-18.37,1.09-.12,2.17-.18,3.25-.18,8.77,0,17.05,4.02,22.6,11.11,7.73,9.88,16.72,19.23,26.71,27.79,42.96,36.82,100.85,57.1,163.01,57.1s120.04-20.28,163.01-57.1c9.99-8.56,18.98-17.92,26.71-27.79,6.24-7.97,15.91-12.05,25.86-10.93,10.91,1.23,19.72,8.1,23.57,18.36,3.87,10.32,1.73,21.35-5.72,29.51Z"/>
  <path class="cls-11" d="M273.5,332.5c0,31.71,25.79,57.5,57.5,57.5s57.5-25.79,57.5-57.5-25.79-57.5-57.5-57.5-57.5,25.79-57.5,57.5Zm57.5-42.5c23.43,0,42.5,19.07,42.5,42.5s-19.07,42.5-42.5,42.5-42.5-19.07-42.5-42.5,19.07-42.5,42.5-42.5Z"/>
  <path class="cls-7" d="M228.5,206c0,26.19,21.31,47.5,47.5,47.5s47.5-21.31,47.5-47.5-21.31-47.5-47.5-47.5-47.5,21.31-47.5,47.5Zm80,0c0,17.92-14.58,32.5-32.5,32.5s-32.5-14.58-32.5-32.5,14.58-32.5,32.5-32.5,32.5,14.58,32.5,32.5Z"/>
  <path class="cls-6" d="M181,295c-20.68,0-37.5,16.82-37.5,37.5s16.82,37.5,37.5,37.5,37.5-16.82,37.5-37.5-16.82-37.5-37.5-37.5Zm0,60c-12.41,0-22.5-10.09-22.5-22.5s10.09-22.5,22.5-22.5,22.5,10.09,22.5,22.5-10.09,22.5-22.5,22.5Z"/>
  <path class="cls-4" d="M151.45,98.67c.48,0,.96-.04,1.45-.14,1.11-.22,2.21-.44,3.31-.68,4.05-.86,6.64-4.84,5.78-8.89-.86-4.05-4.84-6.64-8.89-5.78-1.02,.22-2.04,.43-3.07,.63-4.06,.79-6.72,4.73-5.92,8.8,.7,3.58,3.84,6.06,7.35,6.06Z"/>
  <path class="cls-2" d="M175.21,92.54c.75,0,1.52-.11,2.27-.35,20.99-6.66,35.91-14.39,36.53-14.72,3.67-1.92,5.09-6.44,3.18-10.11-1.91-3.67-6.44-5.1-10.12-3.19-.14,.07-14.45,7.48-34.13,13.72-3.95,1.25-6.13,5.47-4.88,9.42,1.01,3.19,3.97,5.23,7.15,5.23Z"/>
  <path class="cls-1" d="M166.07,271.43c1.02,.47,2.09,.69,3.14,.69,2.83,0,5.55-1.61,6.81-4.35l6-12.98c1.74-3.76,.1-8.22-3.66-9.96-3.76-1.74-8.22-.1-9.96,3.66l-6,12.98c-1.74,3.76-.1,8.22,3.66,9.96Z"/>
  <path class="cls-5" d="M253.15,267.09c-3.76-1.74-8.22-.1-9.96,3.66l-6,12.98c-1.74,3.76-.1,8.22,3.66,9.96,1.02,.47,2.09,.69,3.14,.69,2.83,0,5.55-1.61,6.81-4.35l6-12.98c1.74-3.76,.1-8.22-3.66-9.96Z"/>
  <path class="cls-9" d="M250.15,362.72c-3.76-1.74-8.22-.1-9.96,3.66l-6,12.98c-1.74,3.76-.1,8.22,3.66,9.96,1.02,.47,2.09,.69,3.14,.69,2.83,0,5.55-1.61,6.81-4.35l6-12.98c1.74-3.76,.1-8.22-3.66-9.96Z"/>
  <path class="cls-8" d="M285.7,139.3c1.02,.47,2.09,.69,3.14,.69,2.83,0,5.55-1.61,6.81-4.35l6-12.98c1.74-3.76,.1-8.22-3.66-9.96-3.76-1.74-8.22-.1-9.96,3.66l-6,12.98c-1.74,3.76-.1,8.22,3.66,9.96Z"/>
  <path class="cls-10" d="M331,320c6.89,0,12.5,5.61,12.5,12.5,0,4.14,3.36,7.5,7.5,7.5s7.5-3.36,7.5-7.5c0-15.16-12.34-27.5-27.5-27.5-4.14,0-7.5,3.36-7.5,7.5s3.36,7.5,7.5,7.5Z"/>
</svg>