<svg width="178" height="178" viewBox="0 0 178 178" fill="none" xmlns="http://www.w3.org/2000/svg">
<g clip-path="url(#clip0_90_49549)">
<path d="M177.023 126.849C175.01 121.488 170.226 117.758 164.532 117.115C160.899 116.701 157.339 117.602 154.401 119.573L101.293 7.77012C99.0507 3.04895 94.2252 0 88.9999 0C83.7746 0 78.9492 3.04895 76.7068 7.77012C76.3348 8.55234 75.7021 9.19551 74.9268 9.58488L70.9009 11.5943C61.6011 16.2355 51.7034 19.5452 41.4823 21.4295C38.5515 21.9684 35.5825 21.9441 32.6622 21.3565L23.3659 19.4861C19.201 18.6483 14.9283 19.7121 11.6429 22.403C8.35758 25.0938 6.47328 29.0745 6.47328 33.3194C6.47328 37.5643 8.29847 41.4128 11.4761 44.0967C14.6571 46.7841 18.8325 47.9244 22.9383 47.2326L29.502 46.1201C33.288 45.4804 37.213 45.7898 40.8495 47.017C42.2332 47.4829 42.6261 48.6371 42.7303 49.1134C42.8346 49.5897 42.9633 50.7995 41.9064 51.8043C39.6014 53.991 36.7228 55.3955 33.58 55.8649L30.8822 56.2682C29.1857 56.522 26.2236 56.6193 24.5166 56.3655C22.0587 55.997 19.566 56.7062 17.6782 58.3193C15.787 59.9325 14.6919 62.2791 14.6675 64.7614C14.6432 67.2332 15.7105 69.5904 17.5948 71.2313C19.5347 72.9209 22.1004 73.6753 24.6418 73.2998L25.7404 73.1399C27.5134 72.8792 29.3108 72.8479 31.0908 73.0495L38.4264 73.877C40.5123 74.1134 42.553 74.7878 44.3713 75.8308L23.5953 119.573C20.6577 117.598 17.0977 116.701 13.4646 117.111C7.77004 117.755 2.98281 121.485 0.973356 126.846C-1.04653 132.228 0.114645 138.207 3.99449 142.456C13.9027 153.296 26.7069 162.251 41.0234 168.363C56.0073 174.756 72.1455 178 88.993 178C105.84 178 121.982 174.756 136.963 168.363C151.279 162.255 164.083 153.296 173.991 142.456C177.875 138.207 179.032 132.228 177.013 126.846L177.023 126.849ZM102.84 23.1817L150.441 123.39C148.056 126.366 145.317 129.193 142.278 131.796C128.285 143.787 109.366 150.393 89.0034 150.393C68.6412 150.393 49.7182 143.787 35.7286 131.796C32.69 129.193 29.9505 126.366 27.5656 123.39L49.228 77.7846C49.8121 77.8785 50.4031 77.9306 50.9976 77.9306C51.9676 77.9306 52.941 77.8055 53.8936 77.5517C56.9217 76.7416 59.4909 74.6835 60.9441 71.9092L64.7891 64.5598C66.8125 60.6973 70.3064 57.843 74.3845 56.7271L74.4575 56.7062C82.4431 54.5577 84.4074 47.1561 86.1387 40.6236C88.0508 33.4202 89.8552 26.6166 98.5744 24.6245C100.031 24.2907 101.46 23.8075 102.84 23.1817ZM31.6818 67.8695C30.7153 67.7617 29.7419 67.7061 28.772 67.7061C27.5065 67.7061 26.241 67.7999 24.986 67.9842L23.8874 68.1441C22.8548 68.2971 21.8119 67.9877 21.0262 67.3028C20.2822 66.6527 19.8754 65.7696 19.8859 64.8101C19.8963 63.8227 20.3135 62.9293 21.0644 62.2861C21.8153 61.6464 22.7679 61.3752 23.7448 61.5213C26.102 61.8759 29.582 61.7368 31.661 61.4274L34.3588 61.0241C38.5654 60.3948 42.4175 58.514 45.5012 55.5868C47.5732 53.619 48.4423 50.7787 47.827 47.9905C47.2116 45.1988 45.23 42.9877 42.5218 42.0768C38.0683 40.575 33.2671 40.196 28.6364 40.9782L22.0726 42.0907C19.4861 42.5288 16.8508 41.8091 14.8448 40.1161C12.8389 38.423 11.6916 35.9442 11.6916 33.3194C11.6916 30.6946 12.8806 28.1323 14.9526 26.4358C17.0246 24.7392 19.719 24.0682 22.3438 24.5967L31.6401 26.4671C35.2175 27.1867 38.847 27.2145 42.4348 26.554C53.1357 24.5828 63.4993 21.1201 73.2372 16.2564L77.263 14.247C79.0743 13.343 80.5519 11.8342 81.421 10.0055C82.8047 7.09566 85.7806 5.21484 89.0034 5.21484C92.2262 5.21484 95.2021 7.09566 96.5858 10.0055L100.608 18.471C99.5721 18.9334 98.5048 19.2914 97.4201 19.5418C85.6276 22.2361 83.121 31.6923 81.1046 39.2886C79.2934 46.1201 77.9375 50.3719 73.0946 51.6756L73.0077 51.7C67.5426 53.1949 62.8631 56.9982 60.1723 62.1436L56.3272 69.493C55.538 71.0018 54.196 72.0761 52.5482 72.5176C50.9037 72.9591 49.2037 72.6984 47.7644 71.7841C45.1361 70.1153 42.115 69.0515 39.0209 68.7004L31.6853 67.8729L31.6818 67.8695ZM170.15 138.941C150.486 160.45 120.908 172.785 88.9999 172.785C57.092 172.785 27.51 160.45 7.85 138.941C5.25996 136.107 4.51597 132.269 5.8614 128.681C7.19988 125.111 10.2627 122.726 14.0557 122.295C14.4346 122.253 14.8101 122.232 15.1855 122.232C18.2345 122.232 21.1131 123.63 23.0426 126.095C25.73 129.53 28.8554 132.78 32.3285 135.756C47.2638 148.557 67.3896 155.607 88.9999 155.607C110.61 155.607 130.733 148.557 145.671 135.756C149.144 132.78 152.27 129.526 154.957 126.095C157.127 123.324 160.488 121.906 163.948 122.295C167.741 122.723 170.803 125.111 172.142 128.678C173.487 132.266 172.743 136.1 170.153 138.937L170.15 138.941Z" fill="white"/>
<path d="M95.084 115.596C95.084 126.62 104.05 135.586 115.074 135.586C126.098 135.586 135.064 126.62 135.064 115.596C135.064 104.572 126.098 95.6055 115.074 95.6055C104.05 95.6055 95.084 104.572 95.084 115.596ZM115.074 100.82C123.22 100.82 129.85 107.45 129.85 115.596C129.85 123.741 123.22 130.371 115.074 130.371C106.929 130.371 100.299 123.741 100.299 115.596C100.299 107.45 106.929 100.82 115.074 100.82Z" fill="white"/>
<path d="M79.4395 71.6172C79.4395 80.7223 86.848 88.1309 95.9531 88.1309C105.058 88.1309 112.467 80.7223 112.467 71.6172C112.467 62.5121 105.058 55.1035 95.9531 55.1035C86.848 55.1035 79.4395 62.5121 79.4395 71.6172ZM107.252 71.6172C107.252 77.8472 102.183 82.916 95.9531 82.916C89.7231 82.916 84.6543 77.8472 84.6543 71.6172C84.6543 65.3872 89.7231 60.3184 95.9531 60.3184C102.183 60.3184 107.252 65.3872 107.252 71.6172Z" fill="white"/>
<path d="M62.9258 102.559C55.7362 102.559 49.8887 108.406 49.8887 115.596C49.8887 122.785 55.7362 128.633 62.9258 128.633C70.1153 128.633 75.9629 122.785 75.9629 115.596C75.9629 108.406 70.1153 102.559 62.9258 102.559ZM62.9258 123.418C58.6114 123.418 55.1035 119.91 55.1035 115.596C55.1035 111.281 58.6114 107.773 62.9258 107.773C67.2402 107.773 70.748 111.281 70.748 115.596C70.748 119.91 67.2402 123.418 62.9258 123.418Z" fill="white"/>
<path d="M52.6526 34.3033C52.8195 34.3033 52.9863 34.2894 53.1567 34.2547C53.5426 34.1782 53.925 34.1017 54.3074 34.0183C55.7154 33.7193 56.6159 32.3356 56.3169 30.9276C56.0179 29.5196 54.6342 28.6192 53.2262 28.9182C52.8716 28.9946 52.517 29.0676 52.1589 29.1372C50.7474 29.4118 49.8227 30.7816 50.1008 32.1966C50.3441 33.4412 51.4358 34.3033 52.6561 34.3033H52.6526Z" fill="white"/>
<path d="M60.9128 32.1721C61.1736 32.1721 61.4413 32.1338 61.702 32.0504C68.9993 29.735 74.1863 27.0476 74.4019 26.9329C75.6778 26.2654 76.1715 24.694 75.5074 23.4181C74.8434 22.1422 73.2685 21.6451 71.9892 22.3091C71.9405 22.3334 66.9655 24.9095 60.1237 27.0789C58.7504 27.5135 57.9925 28.9806 58.4271 30.3538C58.7782 31.4629 59.8073 32.1721 60.9128 32.1721Z" fill="white"/>
<path d="M57.7353 94.3643C58.0899 94.5277 58.4619 94.6042 58.8269 94.6042C59.8108 94.6042 60.7564 94.0444 61.1945 93.0919L63.2804 88.5793C63.8853 87.2721 63.3152 85.7215 62.008 85.1166C60.7008 84.5117 59.1503 85.0819 58.5453 86.389L56.4594 90.9016C55.8545 92.2088 56.4246 93.7594 57.7318 94.3643H57.7353Z" fill="white"/>
<path d="M88.0092 92.8554C86.702 92.2505 85.1515 92.8206 84.5466 94.1278L82.4606 98.6404C81.8557 99.9476 82.4259 101.498 83.733 102.103C84.0876 102.266 84.4596 102.343 84.8247 102.343C85.8085 102.343 86.7542 101.783 87.1922 100.831L89.2782 96.318C89.8831 95.0109 89.3129 93.4603 88.0057 92.8554H88.0092Z" fill="white"/>
<path d="M86.9662 126.102C85.6591 125.497 84.1085 126.067 83.5036 127.374L81.4176 131.887C80.8127 133.194 81.3829 134.745 82.6901 135.35C83.0447 135.513 83.4167 135.59 83.7817 135.59C84.7656 135.59 85.7112 135.03 86.1492 134.077L88.2352 129.565C88.8401 128.257 88.27 126.707 86.9628 126.102H86.9662Z" fill="white"/>
<path d="M99.3254 48.4285C99.68 48.5919 100.052 48.6684 100.417 48.6684C101.401 48.6684 102.347 48.1086 102.785 47.1561L104.87 42.6435C105.475 41.3363 104.905 39.7858 103.598 39.1808C102.291 38.5759 100.74 39.1461 100.135 40.4533L98.0495 44.9658C97.4446 46.273 98.0147 47.8236 99.3219 48.4285H99.3254Z" fill="white"/>
<path d="M115.074 111.25C117.47 111.25 119.42 113.2 119.42 115.596C119.42 117.035 120.588 118.203 122.027 118.203C123.467 118.203 124.635 117.035 124.635 115.596C124.635 110.325 120.345 106.035 115.074 106.035C113.635 106.035 112.467 107.203 112.467 108.643C112.467 110.082 113.635 111.25 115.074 111.25Z" fill="white"/>
</g>
<defs>
<clipPath id="clip0_90_49549">
<rect width="178" height="178" fill="white"/>
</clipPath>
</defs>
</svg>
